<svg class="svg-icon" style="width: 1em; height: 1em;vertical-align: middle;fill: currentColor;overflow: hidden;" viewBox="0 0 1024 1024" version="1.1" xmlns="http://www.w3.org/2000/svg"><path d="M942.427421 234.839536a17.254917 17.254917 0 1 0-28.988261 18.715833 475.626037 475.626037 0 0 1 76.013661 258.559181c0 263.229511-214.145024 477.386038-477.386038 477.386038s-477.386038-214.156527-477.386038-477.386038 214.145024-477.386038 477.386038-477.386039a475.683553 475.683553 0 0 1 166.659492 29.908523 17.254917 17.254917 0 0 0 12.055436-32.335714 511.964892 511.964892 0 1 0 251.64571 202.538216z" fill="#515151" /><path d="M796.059711 128.365195a482.807533 482.807533 0 0 1 34.969965 28.562639 17.254917 17.254917 0 1 0 23.064073-25.663813c-11.963409-10.755565-24.571002-21.050999-37.47768-30.621726a17.256067 17.256067 0 1 0-20.556358 27.7229zM677.000784 172.181181l-68.352478-17.484983-28.574143 111.765849-50.395861-12.837658 28.574143-111.765849-68.858623-17.600016-28.217541 110.431469-133.207959-32.140158-18.750344 73.3449 58.563189 14.954262a27.607867 27.607867 0 0 1 19.912174 33.601075l-75.841112 296.70405a24.594008 24.594008 0 0 1-29.908523 17.738055l-48.026186-12.273998-33.359506 74.391699 133.714104 34.187742-28.067998 109.764279 67.86934 17.346944 28.067998-109.764279 50.395861 12.883671-28.067998 109.764279 68.352478 17.473479 27.941462-109.281141c117.333436 29.482902 211.349727 6.729418 238.773542-100.550153 26.917671-105.278001-32.945388-128.836714-62.508812-149.14 41.664873-13.26328 66.914568-29.908523 80.522946-83.214713 25.502767-99.76793-67.363196-150.232811-129.227826-166.049818z m-50.994032 476.005644c-16.323152 63.8662-100.57316 52.420438-203.861093 26.020415l37.500686-146.689801c118.748339 30.345647 183.166696 54.801617 166.360407 120.669386z m23.179105-217.492477c-11.698834 45.748537-47.692591 63.8662-172.928778 31.852577l34.268265-134.151229c88.828313 22.741981 152.993598 46.013112 138.660513 102.287148z" fill="#515151" /></svg>