<svg class="svg-icon" style="width: 1em; height: 1em;vertical-align: middle;fill: currentColor;overflow: hidden;" viewBox="0 0 1024 1024" version="1.1" xmlns="http://www.w3.org/2000/svg"><path d="M796.059711 128.365195a482.807533 482.807533 0 0 1 34.969965 28.562639 17.254917 17.254917 0 1 0 23.064073-25.663813c-11.963409-10.755565-24.571002-21.050999-37.47768-30.621726a17.256067 17.256067 0 1 0-20.556358 27.7229z" fill="#333333" /><path d="M942.427421 234.839536a17.254917 17.254917 0 1 0-28.988261 18.715833 475.626037 475.626037 0 0 1 76.013661 258.559181c0 263.229511-214.145024 477.386038-477.386038 477.386038s-477.386038-214.156527-477.386038-477.386038 214.145024-477.386038 477.386038-477.386039a475.683553 475.683553 0 0 1 166.659492 29.908523 17.254917 17.254917 0 0 0 12.055436-32.335714 511.964892 511.964892 0 1 0 251.64571 202.538216z" fill="#333333" /><path d="M293.435481 192.795055v284.130967h-75.921635v70.169996h75.921635v284.130967h193.830235c220.862938 0 319.215965-111.006633 319.215965-319.215965 0-169.098187-92.601388-319.215965-319.215965-319.215965z m395.712764 319.215965c0 130.711748-66.719013 200.41011-184.627612 200.41011h-89.150405V547.096018h131.13737v-70.169996h-131.13737V311.612414h82.731576c120.933962 0 191.046442 94.246357 191.046441 200.398606z" fill="#333333" /></svg>