<svg class="svg-icon" style="width: 1em; height: 1em;vertical-align: middle;fill: currentColor;overflow: hidden;" viewBox="0 0 1024 1024" version="1.1" xmlns="http://www.w3.org/2000/svg"><path d="M796.059711 128.365195a482.807533 482.807533 0 0 1 34.969965 28.562639 17.254917 17.254917 0 1 0 23.064073-25.663813c-11.963409-10.755565-24.571002-21.050999-37.47768-30.621726a17.256067 17.256067 0 1 0-20.556358 27.7229z" fill="#515151" /><path d="M942.427421 234.839536a17.254917 17.254917 0 1 0-28.988261 18.715833 475.626037 475.626037 0 0 1 76.013661 258.559181c0 263.229511-214.145024 477.386038-477.386038 477.386038s-477.386038-214.156527-477.386038-477.386038 214.145024-477.386038 477.386038-477.386039a475.683553 475.683553 0 0 1 166.659492 29.908523 17.254917 17.254917 0 0 0 12.055436-32.335714 511.964892 511.964892 0 1 0 251.64571 202.538216z" fill="#515151" /><path d="M540.709946 283.601932c-19.072435 29.390875-40.157944 64.855482-59.506458 98.537079-64.268814-13.067724-133.495542 43.712457-154.983665 80.868045a3.531506 3.531506 0 0 0 4.221703 5.130462c39.364217-14.172039 84.180989-1.909544 99.813944 5.268501l-2.553728 4.796867a29.505908 29.505908 0 0 0 8.719485 38.018334l4.831377 3.450983c-30.449177 37.638726-61.634564 111.259705-22.086294 140.0179 40.261473 29.310352 96.903614-21.856228 124.235403-66.557966l4.911899 3.531506a29.505908 29.505908 0 0 0 39.502257-4.601311l4.854383-5.590593c11.813867 11.411252 39.870362 49.774684 40.261473 92.394329a3.531506 3.531506 0 0 0 6.28079 2.17412c27.481331-33.19846 58.666718-117.575005 21.856229-174.044597 31.438459-36.960032 61.887636-73.459933 74.15013-90.369752 47.335989-65.246593 25.58329-205.977696 6.395822-216.261627-2.300656-1.253857-7.270072-1.921047-14.137528-1.921048-40.169447 0.080523-146.344703 22.88002-186.767222 85.158768z m186.249574-59.483451a135.071491 135.071491 0 0 1 5.751639 21.097012 301.040786 301.040786 0 0 1 5.337521 52.834556c0.655687 44.28762-7.925759 82.041379-23.558713 103.529502-22.465902 30.966824-109.568723 131.781553-145.976598 173.699498a3.888108 3.888108 0 0 1-2.967846 1.345884 3.842095 3.842095 0 0 1-2.300656-0.747713l-111.938398-80.522946a3.934121 3.934121 0 0 1-1.150328-5.04994c20.07322-37.029052 71.182284-129.987042 112.030425-192.863959 33.773624-51.960307 129.756976-73.126338 164.772954-73.321894z" fill="#515151" /><path d="M630.262965 417.293029a63.325546 63.325546 0 1 0-63.371559-63.325546 63.325546 63.325546 0 0 0 63.371559 63.325546z m0-101.067801a37.742255 37.742255 0 1 1-37.742255 37.742255 37.788268 37.788268 0 0 1 37.742255-37.742255zM255.893383 812.782629l86.991239-121.552838 20.803679 14.888693L276.698211 827.672473zM314.723447 801.367927l51.178084-71.643566 20.817483 14.870287-51.178084 71.644717z" fill="#515151" /></svg>