<svg class="svg-icon" style="width: 1em; height: 1em;vertical-align: middle;fill: currentColor;overflow: hidden;" viewBox="0 0 1024 1024" version="1.1" xmlns="http://www.w3.org/2000/svg"><path d="M796.059711 128.365195a482.807533 482.807533 0 0 1 34.969965 28.562639 17.254917 17.254917 0 1 0 23.064073-25.663813c-11.963409-10.755565-24.571002-21.050999-37.47768-30.621726a17.256067 17.256067 0 1 0-20.556358 27.7229z" fill="#515151" /><path d="M942.427421 234.839536a17.254917 17.254917 0 1 0-28.988261 18.715833 475.626037 475.626037 0 0 1 76.013661 258.559181c0 263.229511-214.145024 477.386038-477.386038 477.386038s-477.386038-214.156527-477.386038-477.386038 214.145024-477.386038 477.386038-477.386039a475.683553 475.683553 0 0 1 166.659492 29.908523 17.254917 17.254917 0 0 0 12.055436-32.335714 511.964892 511.964892 0 1 0 251.64571 202.538216z" fill="#515151" /><path d="M482.917477 318.882485c0 21.47662 8.052295 50.614423 16.104589 59.817046a64.510383 64.510383 0 0 1 16.104589 42.562129c0 31.449962-21.465117 57.51639-52.915079 57.51639-28.183031 0-47.16344-21.856228-60.967373-41.411801-24.709041-37.33964-63.463585-60.967374-111.581797-60.967374a138.039336 138.039336 0 1 0 113.192256 217.089863 132.885868 132.885868 0 0 0 6.441835-13.539358 56.95273 56.95273 0 0 1 109.281142 22.488909c0 13.803934-5.970201 25.640807-13.067724 36.281339-3.036865 4.601311-3.036865 5.751639-6.821444 12.204978a138.039336 138.039336 0 1 0 129.446388-83.525302h-11.79086c-31.449962 0-56.366062-24.340936-56.366063-55.790899s26.066428-55.790898 57.51639-55.790898a110.845587 110.845587 0 0 1 14.034 0.747713 138.039336 138.039336 0 1 0-148.610849-137.682735z" fill="#515151" /></svg>